<?xml version="1.0" encoding="utf-8"?>
<!-- Generator: Adobe Illustrator 23.0.0, SVG Export Plug-In . SVG Version: 6.00 Build 0)  -->
<svg version="1.1" id="Layer_1" xmlns="http://www.w3.org/2000/svg" xmlns:xlink="http://www.w3.org/1999/xlink" x="0px" y="0px"
	 viewBox="0 0 841.89 238" style="enable-background:new 0 0 841.89 238;" xml:space="preserve">
<style type="text/css">
	.st0{fill:#0089D9;}
	.st1{fill:#3B3B3B;}
</style>
<g>
	<path class="st0" d="M301.91,152.2V89.55c0-1.38,0.47-2.54,1.4-3.48c0.93-0.94,2.08-1.41,3.43-1.41h21.13
		c1.35,0,2.63,0.47,3.84,1.41c1.21,0.94,2.02,2.07,2.44,3.38l15.32,43.12l15.33-43.12c0.42-1.31,1.23-2.44,2.44-3.38
		c1.21-0.94,2.49-1.41,3.85-1.41h21.15c1.35,0,2.48,0.47,3.4,1.41c0.92,0.94,1.38,2.1,1.38,3.48v62.65c0,1.38-0.48,2.53-1.45,3.46
		c-0.97,0.93-2.14,1.39-3.51,1.39h-9.5c-1.37,0-2.54-0.46-3.51-1.39c-0.97-0.93-1.45-2.08-1.45-3.46v-49.33l-18.16,49.63
		c-0.48,1.25-1.32,2.31-2.52,3.21c-1.2,0.89-2.47,1.34-3.81,1.34h-7.36c-1.34,0-2.6-0.45-3.78-1.34c-1.18-0.89-2.03-1.96-2.55-3.21
		l-18.11-49.63v49.33c0,1.38-0.48,2.53-1.45,3.46c-0.96,0.93-2.13,1.39-3.5,1.39h-9.47c-1.37,0-2.54-0.46-3.52-1.39
		C302.4,154.73,301.91,153.58,301.91,152.2z"/>
	<path class="st1" d="M407.49,94.19v-4.75c0-1.38,0.46-2.52,1.39-3.43c0.93-0.91,2.09-1.36,3.5-1.36h65.35
		c1.41,0,2.57,0.45,3.5,1.36c0.93,0.91,1.39,2.05,1.39,3.43v4.75c0,1.38-0.46,2.52-1.39,3.41c-0.93,0.89-2.09,1.34-3.5,1.34h-22.97
		v53.47c0,1.31-0.47,2.41-1.42,3.31c-0.94,0.89-2.09,1.34-3.42,1.34h-9.73c-1.34,0-2.48-0.45-3.42-1.34
		c-0.94-0.89-1.42-1.99-1.42-3.31V98.94h-22.97c-1.41,0-2.57-0.45-3.5-1.34C407.95,96.71,407.49,95.57,407.49,94.19z"/>
	<path class="st1" d="M498.96,149.57c-7.04-6.03-10.56-15.59-10.56-28.7c0-13.11,3.52-22.67,10.56-28.7
		c7.04-6.03,17.35-9.04,30.92-9.04c13.58,0,23.88,3.01,30.9,9.04c7.02,6.03,10.53,15.59,10.53,28.7c0,13.11-3.51,22.67-10.53,28.7
		c-7.02,6.03-17.32,9.04-30.9,9.04C516.31,158.61,506,155.6,498.96,149.57z M513.05,102.83c-3.48,4.04-5.23,10.07-5.23,18.07
		c0,8,1.74,14.02,5.23,18.04c3.48,4.03,9.1,6.04,16.84,6.04c7.74,0,13.35-2.01,16.81-6.04c3.47-4.03,5.2-10.04,5.2-18.04
		c0-8-1.73-14.02-5.2-18.07c-3.47-4.04-9.07-6.06-16.81-6.06C522.15,96.77,516.53,98.79,513.05,102.83z"/>
	<path class="st1" d="M591.75,149.57c-7.04-6.03-10.56-15.59-10.56-28.7c0-13.11,3.52-22.67,10.56-28.7
		c7.04-6.03,17.35-9.04,30.92-9.04c13.58,0,23.88,3.01,30.9,9.04c7.02,6.03,10.53,15.59,10.53,28.7c0,13.11-3.51,22.67-10.53,28.7
		c-7.02,6.03-17.32,9.04-30.9,9.04C609.1,158.61,598.79,155.6,591.75,149.57z M605.84,102.83c-3.48,4.04-5.23,10.07-5.23,18.07
		c0,8,1.74,14.02,5.23,18.04c3.48,4.03,9.1,6.04,16.84,6.04c7.74,0,13.35-2.01,16.81-6.04c3.47-4.03,5.2-10.04,5.2-18.04
		c0-8-1.73-14.02-5.2-18.07c-3.47-4.04-9.07-6.06-16.81-6.06C614.93,96.77,609.32,98.79,605.84,102.83z"/>
	<path class="st1" d="M677.64,152.4V89.55c0-1.38,0.48-2.54,1.44-3.48c0.96-0.94,2.11-1.41,3.45-1.41h9.68
		c1.34,0,2.48,0.47,3.42,1.41c0.94,0.94,1.42,2.1,1.42,3.48v53.21h44.85c1.34,0,2.48,0.47,3.42,1.41c0.94,0.94,1.42,2.07,1.42,3.38
		v4.75c0,1.31-0.47,2.43-1.42,3.36c-0.95,0.93-2.09,1.39-3.42,1.39h-59.38c-1.34,0-2.49-0.45-3.45-1.34
		C678.12,154.82,677.64,153.72,677.64,152.4z"/>
	<path class="st0" d="M95.14,152.4V89.55c0-1.38,0.47-2.54,1.41-3.48c0.94-0.94,2.07-1.41,3.38-1.41h28.22
		c14.61,0,25.24,2.92,31.88,8.76c6.65,5.84,9.97,14.99,9.97,27.47c0,12.47-3.32,21.62-9.97,27.44c-6.65,5.82-17.28,8.73-31.88,8.73
		H99.94c-1.31,0-2.44-0.45-3.38-1.34C95.62,154.82,95.14,153.72,95.14,152.4z M114.18,142.76h13.43c9.02,0,15.17-1.65,18.45-4.95
		c3.28-3.3,4.92-8.94,4.92-16.94c0-7.99-1.63-13.65-4.9-16.96c-3.26-3.31-9.42-4.97-18.48-4.97h-13.43V142.76z"/>
	<path class="st1" d="M291.47,179.62c0,1.05-0.14,1.95-0.41,2.7c-0.28,0.75-0.67,1.36-1.18,1.83c-0.51,0.47-1.14,0.82-1.88,1.04
		c-0.74,0.22-1.61,0.33-2.63,0.33h-2.74c-0.2,0-0.36-0.06-0.49-0.17c-0.13-0.12-0.2-0.3-0.2-0.56v-10c0-0.26,0.07-0.45,0.2-0.56
		c0.13-0.12,0.3-0.17,0.49-0.17h2.94c1.02,0,1.89,0.12,2.6,0.36c0.71,0.24,1.31,0.59,1.8,1.06c0.49,0.47,0.86,1.05,1.11,1.74
		C291.34,177.91,291.47,178.71,291.47,179.62z M289.06,179.7c0-0.54-0.06-1.05-0.19-1.52c-0.13-0.47-0.33-0.87-0.61-1.21
		c-0.28-0.34-0.64-0.61-1.08-0.8c-0.44-0.19-1.02-0.29-1.73-0.29h-1.18v7.8h1.21c0.64,0,1.18-0.08,1.61-0.25
		c0.44-0.17,0.8-0.42,1.1-0.75c0.29-0.33,0.51-0.75,0.66-1.25C288.99,180.94,289.06,180.36,289.06,179.7z"/>
	<path class="st1" d="M307.83,185.22c0,0.07-0.01,0.12-0.04,0.16c-0.02,0.04-0.08,0.08-0.17,0.11c-0.09,0.03-0.22,0.05-0.39,0.06
		c-0.17,0.01-0.41,0.02-0.7,0.02c-0.25,0-0.45-0.01-0.59-0.02c-0.15-0.01-0.26-0.04-0.35-0.07c-0.09-0.03-0.15-0.07-0.18-0.13
		c-0.04-0.05-0.06-0.11-0.09-0.18l-1.03-2.56c-0.12-0.29-0.25-0.55-0.36-0.77s-0.25-0.41-0.39-0.56c-0.14-0.15-0.31-0.27-0.5-0.34
		c-0.19-0.08-0.41-0.12-0.66-0.12h-0.73v4.37c0,0.06-0.02,0.11-0.06,0.16c-0.04,0.05-0.1,0.09-0.19,0.12
		c-0.09,0.03-0.21,0.05-0.35,0.07c-0.15,0.02-0.34,0.03-0.57,0.03c-0.22,0-0.41-0.01-0.56-0.03c-0.15-0.02-0.27-0.04-0.36-0.07
		c-0.09-0.03-0.15-0.07-0.19-0.12c-0.04-0.05-0.05-0.1-0.05-0.16v-10.41c0-0.26,0.07-0.45,0.2-0.56c0.13-0.12,0.3-0.17,0.49-0.17
		h2.97c0.3,0,0.55,0.01,0.74,0.02c0.2,0.01,0.37,0.03,0.53,0.04c0.46,0.06,0.88,0.18,1.25,0.34c0.37,0.16,0.68,0.37,0.94,0.63
		c0.26,0.26,0.45,0.56,0.59,0.91c0.14,0.35,0.2,0.76,0.2,1.21c0,0.38-0.05,0.73-0.15,1.05c-0.1,0.32-0.24,0.6-0.43,0.85
		c-0.19,0.25-0.42,0.46-0.7,0.65c-0.28,0.18-0.59,0.33-0.95,0.44c0.17,0.08,0.33,0.18,0.48,0.3c0.15,0.12,0.29,0.26,0.43,0.43
		c0.13,0.17,0.26,0.36,0.38,0.58c0.12,0.21,0.23,0.46,0.35,0.73l0.97,2.26c0.09,0.22,0.15,0.39,0.18,0.49
		C307.82,185.08,307.83,185.16,307.83,185.22z M304.83,177.44c0-0.38-0.09-0.7-0.26-0.96c-0.17-0.26-0.45-0.44-0.84-0.55
		c-0.12-0.03-0.25-0.05-0.4-0.07c-0.15-0.02-0.36-0.03-0.62-0.03h-1.05v3.25h1.19c0.33,0,0.62-0.04,0.87-0.12
		c0.25-0.08,0.46-0.19,0.62-0.34c0.16-0.14,0.29-0.32,0.37-0.52C304.79,177.91,304.83,177.69,304.83,177.44z"/>
	<path class="st1" d="M325.64,179.65c0,0.95-0.12,1.8-0.35,2.55c-0.24,0.75-0.59,1.39-1.05,1.91c-0.47,0.52-1.04,0.92-1.73,1.2
		c-0.69,0.28-1.48,0.41-2.39,0.41c-0.89,0-1.67-0.12-2.34-0.35c-0.67-0.23-1.22-0.59-1.66-1.07c-0.44-0.48-0.78-1.09-1-1.83
		c-0.22-0.74-0.33-1.61-0.33-2.62c0-0.93,0.12-1.76,0.36-2.51c0.24-0.74,0.59-1.37,1.05-1.89c0.47-0.52,1.04-0.92,1.73-1.2
		c0.69-0.28,1.49-0.42,2.4-0.42c0.87,0,1.63,0.12,2.3,0.35c0.67,0.23,1.22,0.59,1.67,1.06s0.78,1.08,1.01,1.81
		C325.53,177.8,325.64,178.66,325.64,179.65z M323.2,179.78c0-0.6-0.05-1.15-0.14-1.64c-0.09-0.49-0.25-0.92-0.48-1.27
		c-0.23-0.35-0.53-0.62-0.91-0.82c-0.38-0.19-0.85-0.29-1.42-0.29c-0.57,0-1.05,0.11-1.44,0.32c-0.38,0.22-0.69,0.5-0.93,0.87
		c-0.24,0.36-0.4,0.78-0.5,1.26c-0.1,0.48-0.15,0.99-0.15,1.53c0,0.63,0.05,1.19,0.14,1.69c0.09,0.5,0.25,0.93,0.48,1.28
		c0.22,0.36,0.53,0.63,0.9,0.81c0.38,0.19,0.85,0.28,1.43,0.28c0.57,0,1.05-0.11,1.44-0.32c0.38-0.21,0.69-0.5,0.93-0.87
		c0.24-0.37,0.4-0.79,0.5-1.28C323.15,180.85,323.2,180.33,323.2,179.78z"/>
	<path class="st1" d="M341.41,177.54c0,0.64-0.1,1.21-0.3,1.71c-0.2,0.5-0.49,0.92-0.88,1.26c-0.38,0.34-0.86,0.6-1.41,0.78
		c-0.56,0.18-1.22,0.27-1.97,0.27h-0.96v3.66c0,0.06-0.02,0.11-0.06,0.16c-0.04,0.05-0.1,0.09-0.19,0.12
		c-0.09,0.03-0.21,0.05-0.35,0.07c-0.15,0.02-0.34,0.03-0.57,0.03c-0.22,0-0.41-0.01-0.56-0.03c-0.15-0.02-0.27-0.04-0.36-0.07
		c-0.09-0.03-0.15-0.07-0.19-0.12c-0.04-0.05-0.05-0.1-0.05-0.16v-10.32c0-0.28,0.07-0.48,0.22-0.63c0.14-0.14,0.34-0.21,0.57-0.21
		h2.7c0.27,0,0.53,0.01,0.78,0.03c0.25,0.02,0.54,0.06,0.88,0.13c0.34,0.07,0.69,0.19,1.04,0.38c0.35,0.18,0.65,0.41,0.9,0.7
		c0.25,0.28,0.44,0.61,0.57,0.98S341.41,177.07,341.41,177.54z M338.97,177.71c0-0.4-0.07-0.73-0.21-0.99
		c-0.14-0.26-0.32-0.45-0.52-0.58c-0.21-0.12-0.42-0.2-0.65-0.23c-0.23-0.03-0.46-0.05-0.7-0.05h-0.99v3.89h1.05
		c0.37,0,0.68-0.05,0.94-0.15c0.25-0.1,0.46-0.24,0.62-0.42c0.16-0.18,0.28-0.4,0.36-0.65C338.93,178.27,338.97,178,338.97,177.71z"
		/>
	<path class="st1" d="M366.1,182.08c0,0.6-0.11,1.13-0.34,1.59c-0.22,0.46-0.53,0.84-0.91,1.14c-0.38,0.3-0.83,0.53-1.35,0.69
		c-0.51,0.15-1.06,0.23-1.65,0.23c-0.4,0-0.76-0.03-1.1-0.1c-0.34-0.06-0.64-0.14-0.9-0.23c-0.26-0.09-0.48-0.19-0.65-0.29
		c-0.17-0.1-0.3-0.19-0.38-0.27c-0.08-0.08-0.13-0.19-0.16-0.33s-0.05-0.35-0.05-0.63c0-0.18,0.01-0.34,0.02-0.46
		c0.01-0.12,0.03-0.22,0.06-0.3c0.03-0.08,0.06-0.13,0.11-0.16c0.04-0.03,0.1-0.05,0.16-0.05c0.08,0,0.2,0.05,0.35,0.15
		c0.15,0.1,0.34,0.21,0.58,0.32c0.24,0.12,0.52,0.23,0.85,0.32c0.33,0.1,0.71,0.15,1.14,0.15c0.28,0,0.54-0.03,0.76-0.1
		c0.22-0.07,0.42-0.16,0.57-0.29c0.16-0.12,0.28-0.28,0.36-0.46c0.08-0.18,0.12-0.39,0.12-0.61c0-0.26-0.07-0.48-0.21-0.67
		c-0.14-0.19-0.33-0.35-0.55-0.5c-0.23-0.14-0.49-0.28-0.78-0.41c-0.29-0.13-0.59-0.26-0.9-0.4c-0.31-0.14-0.61-0.3-0.9-0.48
		c-0.29-0.18-0.55-0.4-0.78-0.65c-0.23-0.25-0.41-0.55-0.55-0.89c-0.14-0.34-0.21-0.75-0.21-1.23c0-0.55,0.1-1.03,0.31-1.45
		c0.2-0.42,0.48-0.76,0.82-1.04c0.35-0.27,0.75-0.48,1.22-0.62c0.47-0.14,0.97-0.21,1.49-0.21c0.27,0,0.54,0.02,0.82,0.06
		c0.27,0.04,0.53,0.1,0.76,0.17c0.24,0.07,0.45,0.15,0.63,0.24c0.18,0.09,0.3,0.16,0.36,0.22c0.06,0.06,0.1,0.11,0.12,0.15
		c0.02,0.04,0.04,0.1,0.05,0.16c0.01,0.07,0.02,0.15,0.03,0.26c0.01,0.1,0.01,0.23,0.01,0.39c0,0.17,0,0.31-0.01,0.43
		c-0.01,0.12-0.02,0.21-0.04,0.29c-0.02,0.08-0.05,0.13-0.09,0.17c-0.04,0.04-0.09,0.05-0.16,0.05c-0.07,0-0.17-0.04-0.31-0.12
		c-0.14-0.08-0.32-0.17-0.52-0.27c-0.21-0.1-0.45-0.19-0.72-0.27c-0.27-0.08-0.57-0.12-0.89-0.12c-0.25,0-0.48,0.03-0.67,0.09
		c-0.19,0.06-0.35,0.15-0.47,0.26c-0.13,0.11-0.22,0.24-0.28,0.39c-0.06,0.15-0.09,0.32-0.09,0.49c0,0.25,0.07,0.47,0.21,0.66
		c0.14,0.19,0.32,0.35,0.56,0.5c0.23,0.14,0.5,0.28,0.79,0.41c0.3,0.13,0.6,0.26,0.9,0.4c0.31,0.14,0.61,0.3,0.9,0.48
		c0.29,0.18,0.56,0.39,0.79,0.65c0.23,0.25,0.42,0.55,0.56,0.89C366.03,181.22,366.1,181.62,366.1,182.08z"/>
	<path class="st1" d="M382.82,185.2c0,0.06-0.02,0.11-0.06,0.16c-0.04,0.05-0.1,0.09-0.19,0.12c-0.09,0.03-0.21,0.05-0.35,0.07
		c-0.15,0.02-0.33,0.03-0.56,0.03c-0.23,0-0.42-0.01-0.57-0.03c-0.15-0.02-0.27-0.04-0.35-0.07c-0.09-0.03-0.15-0.07-0.19-0.12
		c-0.04-0.05-0.06-0.1-0.06-0.16v-4.63h-4.29v4.63c0,0.06-0.02,0.11-0.05,0.16c-0.04,0.05-0.1,0.09-0.19,0.12
		c-0.09,0.03-0.21,0.05-0.35,0.07c-0.15,0.02-0.34,0.03-0.57,0.03c-0.22,0-0.41-0.01-0.56-0.03c-0.15-0.02-0.27-0.04-0.36-0.07
		c-0.09-0.03-0.15-0.07-0.19-0.12c-0.04-0.05-0.06-0.1-0.06-0.16v-10.83c0-0.06,0.02-0.11,0.06-0.16c0.04-0.05,0.1-0.09,0.19-0.12
		c0.09-0.03,0.21-0.05,0.36-0.07c0.15-0.02,0.34-0.03,0.56-0.03c0.23,0,0.42,0.01,0.57,0.03c0.15,0.02,0.27,0.04,0.35,0.07
		c0.09,0.03,0.15,0.07,0.19,0.12c0.04,0.05,0.05,0.1,0.05,0.16v4.21h4.29v-4.21c0-0.06,0.02-0.11,0.06-0.16
		c0.04-0.05,0.1-0.09,0.19-0.12c0.09-0.03,0.2-0.05,0.35-0.07c0.15-0.02,0.34-0.03,0.57-0.03c0.22,0,0.41,0.01,0.56,0.03
		c0.15,0.02,0.27,0.04,0.35,0.07c0.09,0.03,0.15,0.07,0.19,0.12c0.04,0.05,0.06,0.1,0.06,0.16V185.2z"/>
	<path class="st1" d="M393.6,185.2c0,0.06-0.02,0.11-0.06,0.16c-0.04,0.05-0.1,0.09-0.19,0.12c-0.09,0.03-0.21,0.05-0.36,0.07
		c-0.15,0.02-0.34,0.03-0.57,0.03c-0.22,0-0.41-0.01-0.56-0.03c-0.15-0.02-0.27-0.04-0.36-0.07c-0.09-0.03-0.15-0.07-0.19-0.12
		c-0.04-0.05-0.06-0.1-0.06-0.16v-10.83c0-0.06,0.02-0.11,0.06-0.16c0.04-0.05,0.1-0.09,0.2-0.12c0.09-0.03,0.21-0.05,0.36-0.07
		c0.15-0.02,0.33-0.03,0.56-0.03c0.23,0,0.42,0.01,0.57,0.03c0.15,0.02,0.27,0.04,0.36,0.07c0.09,0.03,0.15,0.07,0.19,0.12
		c0.04,0.05,0.06,0.1,0.06,0.16V185.2z"/>
	<path class="st1" d="M409.9,177.54c0,0.64-0.1,1.21-0.3,1.71c-0.2,0.5-0.49,0.92-0.88,1.26c-0.38,0.34-0.86,0.6-1.41,0.78
		c-0.56,0.18-1.22,0.27-1.97,0.27h-0.96v3.66c0,0.06-0.02,0.11-0.06,0.16c-0.04,0.05-0.1,0.09-0.19,0.12
		c-0.09,0.03-0.21,0.05-0.35,0.07c-0.15,0.02-0.34,0.03-0.57,0.03c-0.22,0-0.41-0.01-0.56-0.03c-0.15-0.02-0.27-0.04-0.36-0.07
		c-0.09-0.03-0.15-0.07-0.19-0.12c-0.04-0.05-0.05-0.1-0.05-0.16v-10.32c0-0.28,0.07-0.48,0.22-0.63c0.14-0.14,0.34-0.21,0.57-0.21
		h2.7c0.27,0,0.53,0.01,0.78,0.03c0.25,0.02,0.54,0.06,0.88,0.13c0.34,0.07,0.69,0.19,1.04,0.38c0.35,0.18,0.65,0.41,0.9,0.7
		c0.25,0.28,0.44,0.61,0.57,0.98C409.83,176.65,409.9,177.07,409.9,177.54z M407.46,177.71c0-0.4-0.07-0.73-0.21-0.99
		c-0.14-0.26-0.32-0.45-0.52-0.58c-0.21-0.12-0.42-0.2-0.65-0.23c-0.23-0.03-0.46-0.05-0.71-0.05h-0.99v3.89h1.05
		c0.37,0,0.68-0.05,0.94-0.15c0.25-0.1,0.46-0.24,0.62-0.42c0.16-0.18,0.28-0.4,0.36-0.65C407.42,178.27,407.46,178,407.46,177.71z"
		/>
	<path class="st1" d="M425.32,177.54c0,0.64-0.1,1.21-0.3,1.71c-0.2,0.5-0.49,0.92-0.88,1.26c-0.38,0.34-0.86,0.6-1.41,0.78
		c-0.56,0.18-1.22,0.27-1.97,0.27h-0.96v3.66c0,0.06-0.02,0.11-0.06,0.16c-0.04,0.05-0.1,0.09-0.19,0.12
		c-0.09,0.03-0.21,0.05-0.36,0.07c-0.15,0.02-0.34,0.03-0.57,0.03c-0.22,0-0.41-0.01-0.56-0.03c-0.15-0.02-0.27-0.04-0.36-0.07
		c-0.09-0.03-0.15-0.07-0.19-0.12c-0.04-0.05-0.05-0.1-0.05-0.16v-10.32c0-0.28,0.07-0.48,0.22-0.63c0.14-0.14,0.33-0.21,0.57-0.21
		h2.7c0.27,0,0.53,0.01,0.78,0.03c0.24,0.02,0.54,0.06,0.88,0.13c0.34,0.07,0.69,0.19,1.04,0.38c0.35,0.18,0.65,0.41,0.9,0.7
		c0.25,0.28,0.44,0.61,0.57,0.98C425.26,176.65,425.32,177.07,425.32,177.54z M422.88,177.71c0-0.4-0.07-0.73-0.21-0.99
		c-0.14-0.26-0.32-0.45-0.52-0.58c-0.21-0.12-0.43-0.2-0.65-0.23c-0.23-0.03-0.46-0.05-0.7-0.05h-0.99v3.89h1.04
		c0.37,0,0.69-0.05,0.94-0.15c0.25-0.1,0.46-0.24,0.62-0.42c0.16-0.18,0.28-0.4,0.36-0.65C422.84,178.27,422.88,178,422.88,177.71z"
		/>
	<path class="st1" d="M435.24,185.2c0,0.06-0.02,0.11-0.06,0.16c-0.04,0.05-0.1,0.09-0.19,0.12c-0.09,0.03-0.21,0.05-0.35,0.07
		c-0.15,0.02-0.34,0.03-0.57,0.03c-0.22,0-0.41-0.01-0.56-0.03c-0.15-0.02-0.27-0.04-0.36-0.07c-0.09-0.03-0.15-0.07-0.19-0.12
		c-0.04-0.05-0.06-0.1-0.06-0.16v-10.83c0-0.06,0.02-0.11,0.06-0.16c0.04-0.05,0.1-0.09,0.2-0.12c0.09-0.03,0.21-0.05,0.36-0.07
		c0.15-0.02,0.33-0.03,0.56-0.03c0.23,0,0.42,0.01,0.57,0.03c0.15,0.02,0.27,0.04,0.35,0.07c0.09,0.03,0.15,0.07,0.19,0.12
		c0.04,0.05,0.06,0.1,0.06,0.16V185.2z"/>
	<path class="st1" d="M453.13,184.71c0,0.14-0.02,0.26-0.07,0.36c-0.05,0.11-0.11,0.2-0.19,0.27c-0.08,0.07-0.17,0.12-0.28,0.16
		c-0.11,0.03-0.22,0.05-0.33,0.05h-0.99c-0.21,0-0.39-0.02-0.54-0.06c-0.15-0.04-0.29-0.12-0.42-0.23
		c-0.13-0.11-0.25-0.26-0.37-0.44c-0.12-0.19-0.25-0.43-0.4-0.72l-2.85-5.36c-0.17-0.32-0.33-0.66-0.5-1.03
		c-0.17-0.37-0.33-0.73-0.46-1.08h-0.02c0.02,0.43,0.04,0.85,0.05,1.27c0.01,0.42,0.02,0.86,0.02,1.31v6c0,0.06-0.02,0.11-0.05,0.16
		c-0.03,0.05-0.09,0.09-0.17,0.12c-0.08,0.03-0.19,0.06-0.32,0.07c-0.14,0.02-0.31,0.03-0.52,0.03c-0.21,0-0.38-0.01-0.51-0.03
		c-0.14-0.02-0.24-0.04-0.32-0.07c-0.08-0.03-0.13-0.07-0.16-0.12c-0.03-0.05-0.04-0.1-0.04-0.16v-10.31c0-0.28,0.08-0.48,0.24-0.63
		c0.16-0.14,0.36-0.21,0.6-0.21h1.25c0.22,0,0.41,0.02,0.57,0.06c0.15,0.04,0.29,0.1,0.41,0.19c0.12,0.09,0.24,0.21,0.34,0.37
		c0.11,0.16,0.21,0.35,0.33,0.58l2.23,4.19c0.13,0.25,0.26,0.5,0.39,0.75c0.13,0.24,0.25,0.49,0.37,0.73
		c0.12,0.25,0.23,0.49,0.35,0.72c0.11,0.24,0.22,0.47,0.33,0.71h0.01c-0.02-0.41-0.03-0.84-0.04-1.29
		c-0.01-0.45-0.01-0.88-0.01-1.29v-5.38c0-0.06,0.02-0.11,0.05-0.16c0.04-0.05,0.09-0.09,0.18-0.12c0.08-0.04,0.19-0.06,0.33-0.08
		c0.14-0.02,0.31-0.02,0.52-0.02c0.2,0,0.37,0.01,0.51,0.02c0.14,0.02,0.24,0.04,0.31,0.08c0.07,0.04,0.13,0.08,0.16,0.12
		c0.03,0.05,0.04,0.1,0.04,0.16V184.71z"/>
	<path class="st1" d="M470.78,175.83c0,0.17-0.01,0.32-0.02,0.44c-0.01,0.13-0.04,0.22-0.06,0.3s-0.06,0.13-0.1,0.15
		c-0.04,0.03-0.08,0.04-0.14,0.04c-0.08,0-0.2-0.05-0.37-0.16c-0.17-0.11-0.4-0.22-0.68-0.35c-0.28-0.12-0.62-0.24-1.01-0.35
		c-0.39-0.11-0.85-0.16-1.37-0.16c-0.56,0-1.06,0.1-1.51,0.29c-0.45,0.19-0.83,0.46-1.15,0.82c-0.32,0.35-0.56,0.77-0.74,1.27
		c-0.17,0.49-0.26,1.04-0.26,1.63c0,0.66,0.09,1.23,0.26,1.73c0.17,0.5,0.42,0.92,0.73,1.26c0.31,0.34,0.69,0.59,1.13,0.76
		c0.44,0.17,0.93,0.26,1.46,0.26c0.26,0,0.52-0.03,0.77-0.09c0.25-0.06,0.49-0.15,0.71-0.27v-2.66h-2.17c-0.11,0-0.19-0.07-0.25-0.2
		c-0.06-0.13-0.09-0.36-0.09-0.68c0-0.16,0.01-0.3,0.02-0.42c0.01-0.11,0.04-0.2,0.07-0.27c0.03-0.07,0.07-0.12,0.11-0.15
		c0.04-0.03,0.09-0.05,0.14-0.05h3.87c0.09,0,0.18,0.02,0.25,0.05c0.07,0.03,0.14,0.08,0.2,0.15c0.06,0.07,0.1,0.14,0.13,0.23
		c0.03,0.09,0.04,0.2,0.04,0.32v4.56c0,0.18-0.03,0.33-0.09,0.46c-0.06,0.13-0.19,0.24-0.38,0.31c-0.19,0.08-0.43,0.16-0.71,0.24
		c-0.28,0.08-0.58,0.15-0.88,0.21c-0.3,0.06-0.61,0.1-0.92,0.13c-0.31,0.03-0.62,0.04-0.93,0.04c-0.92,0-1.74-0.13-2.46-0.39
		c-0.72-0.26-1.34-0.64-1.84-1.14c-0.5-0.5-0.89-1.11-1.15-1.83c-0.27-0.72-0.4-1.53-0.4-2.44c0-0.94,0.14-1.78,0.42-2.53
		c0.28-0.75,0.69-1.38,1.21-1.91c0.52-0.52,1.15-0.92,1.88-1.2c0.74-0.28,1.56-0.42,2.46-0.42c0.5,0,0.95,0.03,1.36,0.1
		c0.41,0.07,0.76,0.15,1.07,0.25c0.3,0.1,0.56,0.2,0.76,0.31c0.2,0.11,0.34,0.21,0.42,0.29c0.08,0.08,0.14,0.2,0.17,0.35
		C470.76,175.32,470.78,175.54,470.78,175.83z"/>
	<path class="st1" d="M502.6,185.2c0,0.06-0.02,0.11-0.05,0.16c-0.03,0.05-0.09,0.09-0.18,0.12c-0.09,0.03-0.2,0.05-0.34,0.07
		c-0.14,0.02-0.32,0.03-0.54,0.03c-0.21,0-0.39-0.01-0.53-0.03c-0.14-0.02-0.25-0.04-0.34-0.07s-0.14-0.07-0.18-0.12
		c-0.04-0.05-0.05-0.1-0.05-0.16v-9.33h-0.02l-3.32,9.33c-0.02,0.08-0.06,0.14-0.12,0.19c-0.05,0.05-0.13,0.09-0.22,0.12
		c-0.09,0.03-0.21,0.05-0.35,0.06c-0.14,0.01-0.31,0.01-0.51,0.01c-0.2,0-0.37-0.01-0.51-0.02c-0.14-0.02-0.26-0.04-0.35-0.07
		c-0.09-0.03-0.16-0.07-0.22-0.12c-0.05-0.05-0.09-0.1-0.11-0.17l-3.21-9.33h-0.02v9.33c0,0.06-0.02,0.11-0.05,0.16
		c-0.03,0.05-0.09,0.09-0.18,0.12c-0.09,0.03-0.2,0.05-0.34,0.07c-0.14,0.02-0.32,0.03-0.54,0.03c-0.21,0-0.39-0.01-0.53-0.03
		c-0.14-0.02-0.26-0.04-0.34-0.07c-0.09-0.03-0.14-0.07-0.18-0.12c-0.03-0.05-0.05-0.1-0.05-0.16v-10.22c0-0.3,0.08-0.53,0.24-0.69
		c0.16-0.16,0.37-0.24,0.64-0.24h1.52c0.27,0,0.5,0.02,0.7,0.07c0.2,0.04,0.36,0.12,0.5,0.22c0.14,0.1,0.26,0.24,0.35,0.41
		c0.09,0.17,0.18,0.38,0.25,0.63l2.48,6.83h0.04l2.57-6.82c0.08-0.25,0.16-0.46,0.25-0.63c0.09-0.17,0.2-0.31,0.32-0.42
		c0.12-0.11,0.26-0.18,0.43-0.23c0.17-0.04,0.36-0.07,0.58-0.07h1.57c0.16,0,0.3,0.02,0.41,0.06c0.12,0.04,0.21,0.1,0.28,0.18
		c0.07,0.08,0.13,0.18,0.17,0.29c0.04,0.12,0.06,0.25,0.06,0.39V185.2z"/>
	<path class="st1" d="M520.43,184.65c0.07,0.21,0.12,0.38,0.13,0.51c0.02,0.12-0.01,0.22-0.07,0.28c-0.06,0.06-0.18,0.1-0.35,0.12
		c-0.16,0.01-0.39,0.02-0.68,0.02c-0.3,0-0.54,0-0.7-0.01c-0.17-0.01-0.3-0.03-0.39-0.05c-0.09-0.03-0.15-0.06-0.19-0.11
		c-0.04-0.05-0.06-0.11-0.09-0.19l-0.77-2.3h-4.31l-0.73,2.24c-0.02,0.08-0.05,0.15-0.09,0.21c-0.04,0.06-0.1,0.1-0.19,0.13
		c-0.09,0.03-0.21,0.05-0.36,0.07c-0.16,0.01-0.36,0.02-0.62,0.02c-0.27,0-0.48-0.01-0.64-0.03c-0.15-0.02-0.26-0.06-0.32-0.13
		c-0.06-0.07-0.08-0.16-0.06-0.29c0.02-0.12,0.06-0.29,0.13-0.5l3.54-10.18c0.04-0.1,0.08-0.18,0.12-0.24
		c0.05-0.06,0.12-0.11,0.23-0.14c0.1-0.03,0.25-0.05,0.43-0.06c0.18-0.01,0.42-0.01,0.73-0.01c0.35,0,0.63,0,0.83,0.01
		c0.21,0.01,0.37,0.03,0.48,0.06c0.12,0.03,0.2,0.08,0.25,0.15c0.05,0.06,0.09,0.15,0.13,0.27L520.43,184.65z M515.16,176.24
		L515.16,176.24l-1.63,4.88h3.25L515.16,176.24z"/>
	<path class="st1" d="M537.43,184.71c0,0.14-0.02,0.26-0.07,0.36c-0.05,0.11-0.11,0.2-0.19,0.27c-0.08,0.07-0.17,0.12-0.28,0.16
		c-0.11,0.03-0.22,0.05-0.33,0.05h-0.99c-0.21,0-0.39-0.02-0.54-0.06c-0.15-0.04-0.29-0.12-0.42-0.23
		c-0.13-0.11-0.25-0.26-0.37-0.44c-0.12-0.19-0.25-0.43-0.4-0.72l-2.85-5.36c-0.17-0.32-0.33-0.66-0.5-1.03
		c-0.17-0.37-0.33-0.73-0.46-1.08H530c0.02,0.43,0.04,0.85,0.05,1.27c0.01,0.42,0.02,0.86,0.02,1.31v6c0,0.06-0.02,0.11-0.05,0.16
		c-0.03,0.05-0.09,0.09-0.17,0.12c-0.08,0.03-0.19,0.06-0.32,0.07c-0.14,0.02-0.31,0.03-0.52,0.03c-0.21,0-0.38-0.01-0.51-0.03
		c-0.14-0.02-0.24-0.04-0.32-0.07c-0.08-0.03-0.13-0.07-0.16-0.12c-0.03-0.05-0.04-0.1-0.04-0.16v-10.31c0-0.28,0.08-0.48,0.24-0.63
		c0.16-0.14,0.36-0.21,0.6-0.21h1.25c0.22,0,0.41,0.02,0.57,0.06c0.15,0.04,0.29,0.1,0.41,0.19c0.12,0.09,0.24,0.21,0.34,0.37
		c0.11,0.16,0.21,0.35,0.33,0.58l2.23,4.19c0.13,0.25,0.26,0.5,0.39,0.75c0.13,0.24,0.25,0.49,0.37,0.73
		c0.12,0.25,0.23,0.49,0.35,0.72c0.11,0.24,0.22,0.47,0.33,0.71h0.01c-0.02-0.41-0.03-0.84-0.04-1.29
		c-0.01-0.45-0.01-0.88-0.01-1.29v-5.38c0-0.06,0.02-0.11,0.05-0.16c0.04-0.05,0.09-0.09,0.18-0.12c0.08-0.04,0.19-0.06,0.33-0.08
		c0.14-0.02,0.31-0.02,0.52-0.02c0.2,0,0.37,0.01,0.51,0.02c0.14,0.02,0.24,0.04,0.31,0.08c0.07,0.04,0.13,0.08,0.16,0.12
		c0.03,0.05,0.04,0.1,0.04,0.16V184.71z"/>
	<path class="st1" d="M555.25,184.65c0.07,0.21,0.12,0.38,0.13,0.51c0.02,0.12-0.01,0.22-0.07,0.28c-0.06,0.06-0.18,0.1-0.35,0.12
		c-0.17,0.01-0.39,0.02-0.68,0.02c-0.3,0-0.54,0-0.7-0.01c-0.17-0.01-0.3-0.03-0.39-0.05c-0.09-0.03-0.15-0.06-0.19-0.11
		c-0.04-0.05-0.06-0.11-0.09-0.19l-0.77-2.3h-4.31l-0.73,2.24c-0.02,0.08-0.05,0.15-0.09,0.21c-0.04,0.06-0.1,0.1-0.19,0.13
		c-0.09,0.03-0.21,0.05-0.36,0.07c-0.16,0.01-0.36,0.02-0.62,0.02c-0.27,0-0.48-0.01-0.64-0.03c-0.15-0.02-0.26-0.06-0.32-0.13
		c-0.06-0.07-0.08-0.16-0.06-0.29c0.02-0.12,0.06-0.29,0.13-0.5l3.54-10.18c0.04-0.1,0.08-0.18,0.12-0.24
		c0.05-0.06,0.12-0.11,0.23-0.14c0.1-0.03,0.25-0.05,0.43-0.06c0.18-0.01,0.42-0.01,0.73-0.01c0.35,0,0.63,0,0.83,0.01
		c0.21,0.01,0.37,0.03,0.48,0.06c0.12,0.03,0.2,0.08,0.25,0.15c0.05,0.06,0.09,0.15,0.13,0.27L555.25,184.65z M549.99,176.24
		L549.99,176.24l-1.63,4.88h3.25L549.99,176.24z"/>
	<path class="st1" d="M571.69,175.83c0,0.17-0.01,0.32-0.02,0.44c-0.01,0.13-0.04,0.22-0.06,0.3c-0.03,0.07-0.06,0.13-0.1,0.15
		c-0.04,0.03-0.08,0.04-0.14,0.04c-0.08,0-0.2-0.05-0.37-0.16c-0.17-0.11-0.4-0.22-0.68-0.35c-0.28-0.12-0.62-0.24-1.01-0.35
		c-0.39-0.11-0.85-0.16-1.37-0.16c-0.56,0-1.06,0.1-1.51,0.29c-0.45,0.19-0.83,0.46-1.15,0.82c-0.32,0.35-0.56,0.77-0.74,1.27
		c-0.17,0.49-0.26,1.04-0.26,1.63c0,0.66,0.09,1.23,0.26,1.73c0.17,0.5,0.42,0.92,0.73,1.26c0.31,0.34,0.69,0.59,1.13,0.76
		c0.44,0.17,0.93,0.26,1.46,0.26c0.26,0,0.52-0.03,0.77-0.09c0.25-0.06,0.49-0.15,0.71-0.27v-2.66h-2.17c-0.11,0-0.19-0.07-0.25-0.2
		c-0.06-0.13-0.09-0.36-0.09-0.68c0-0.16,0.01-0.3,0.02-0.42c0.01-0.11,0.04-0.2,0.07-0.27c0.03-0.07,0.07-0.12,0.11-0.15
		c0.04-0.03,0.09-0.05,0.14-0.05h3.87c0.09,0,0.18,0.02,0.25,0.05c0.07,0.03,0.14,0.08,0.2,0.15c0.06,0.07,0.1,0.14,0.13,0.23
		c0.03,0.09,0.04,0.2,0.04,0.32v4.56c0,0.18-0.03,0.33-0.09,0.46c-0.06,0.13-0.19,0.24-0.38,0.31c-0.19,0.08-0.43,0.16-0.71,0.24
		c-0.28,0.08-0.58,0.15-0.88,0.21c-0.3,0.06-0.61,0.1-0.92,0.13c-0.31,0.03-0.62,0.04-0.93,0.04c-0.92,0-1.74-0.13-2.46-0.39
		c-0.72-0.26-1.34-0.64-1.84-1.14c-0.5-0.5-0.89-1.11-1.15-1.83c-0.27-0.72-0.4-1.53-0.4-2.44c0-0.94,0.14-1.78,0.42-2.53
		c0.28-0.75,0.69-1.38,1.21-1.91c0.52-0.52,1.15-0.92,1.88-1.2c0.74-0.28,1.56-0.42,2.46-0.42c0.5,0,0.95,0.03,1.36,0.1
		c0.41,0.07,0.76,0.15,1.07,0.25c0.3,0.1,0.56,0.2,0.76,0.31c0.2,0.11,0.34,0.21,0.42,0.29c0.08,0.08,0.14,0.2,0.17,0.35
		C571.67,175.32,571.69,175.54,571.69,175.83z"/>
	<path class="st1" d="M586.8,184.61c0,0.17-0.01,0.31-0.02,0.43c-0.01,0.12-0.04,0.21-0.07,0.28c-0.03,0.07-0.07,0.12-0.11,0.16
		c-0.04,0.03-0.09,0.05-0.15,0.05h-5.76c-0.2,0-0.36-0.06-0.49-0.17c-0.13-0.12-0.2-0.3-0.2-0.56v-10c0-0.26,0.07-0.45,0.2-0.56
		c0.13-0.12,0.3-0.17,0.49-0.17h5.73c0.05,0,0.1,0.01,0.14,0.04c0.04,0.03,0.08,0.08,0.11,0.15c0.03,0.07,0.05,0.17,0.07,0.28
		c0.01,0.12,0.02,0.26,0.02,0.44c0,0.17-0.01,0.3-0.02,0.42c-0.01,0.12-0.04,0.21-0.07,0.28c-0.03,0.07-0.07,0.12-0.11,0.16
		c-0.04,0.03-0.09,0.05-0.14,0.05h-4.1v2.8h3.47c0.05,0,0.1,0.02,0.15,0.05c0.04,0.03,0.08,0.08,0.11,0.15
		c0.03,0.07,0.05,0.16,0.07,0.28c0.01,0.12,0.02,0.26,0.02,0.42c0,0.17-0.01,0.31-0.02,0.43c-0.02,0.11-0.04,0.2-0.07,0.27
		c-0.03,0.07-0.07,0.12-0.11,0.15c-0.04,0.03-0.09,0.04-0.15,0.04h-3.47v3.24h4.13c0.05,0,0.1,0.02,0.15,0.05
		c0.04,0.03,0.08,0.08,0.11,0.15c0.03,0.07,0.05,0.16,0.07,0.28C586.8,184.29,586.8,184.44,586.8,184.61z"/>
	<path class="st1" d="M608.1,185.2c0,0.06-0.02,0.11-0.05,0.16c-0.03,0.05-0.09,0.09-0.18,0.12c-0.09,0.03-0.2,0.05-0.34,0.07
		c-0.14,0.02-0.32,0.03-0.54,0.03c-0.21,0-0.39-0.01-0.53-0.03c-0.14-0.02-0.25-0.04-0.34-0.07c-0.08-0.03-0.14-0.07-0.18-0.12
		c-0.04-0.05-0.05-0.1-0.05-0.16v-9.33h-0.02l-3.32,9.33c-0.02,0.08-0.06,0.14-0.12,0.19c-0.05,0.05-0.13,0.09-0.22,0.12
		c-0.09,0.03-0.21,0.05-0.35,0.06c-0.14,0.01-0.31,0.01-0.51,0.01c-0.2,0-0.37-0.01-0.51-0.02c-0.14-0.02-0.26-0.04-0.35-0.07
		c-0.09-0.03-0.16-0.07-0.22-0.12c-0.05-0.05-0.09-0.1-0.11-0.17l-3.21-9.33h-0.02v9.33c0,0.06-0.02,0.11-0.05,0.16
		c-0.03,0.05-0.09,0.09-0.18,0.12s-0.2,0.05-0.34,0.07c-0.14,0.02-0.32,0.03-0.54,0.03c-0.21,0-0.39-0.01-0.53-0.03
		c-0.14-0.02-0.26-0.04-0.34-0.07c-0.09-0.03-0.14-0.07-0.18-0.12c-0.03-0.05-0.05-0.1-0.05-0.16v-10.22c0-0.3,0.08-0.53,0.24-0.69
		c0.16-0.16,0.37-0.24,0.64-0.24h1.52c0.27,0,0.5,0.02,0.7,0.07c0.2,0.04,0.36,0.12,0.5,0.22c0.14,0.1,0.26,0.24,0.35,0.41
		c0.09,0.17,0.18,0.38,0.25,0.63l2.48,6.83h0.04l2.57-6.82c0.08-0.25,0.16-0.46,0.25-0.63c0.09-0.17,0.2-0.31,0.32-0.42
		c0.12-0.11,0.26-0.18,0.43-0.23c0.16-0.04,0.36-0.07,0.58-0.07h1.57c0.16,0,0.3,0.02,0.41,0.06c0.12,0.04,0.21,0.1,0.28,0.18
		c0.07,0.08,0.13,0.18,0.17,0.29c0.04,0.12,0.06,0.25,0.06,0.39V185.2z"/>
	<path class="st1" d="M623.34,184.61c0,0.17-0.01,0.31-0.02,0.43c-0.01,0.12-0.04,0.21-0.07,0.28c-0.03,0.07-0.07,0.12-0.11,0.16
		c-0.04,0.03-0.09,0.05-0.15,0.05h-5.76c-0.2,0-0.36-0.06-0.49-0.17c-0.13-0.12-0.2-0.3-0.2-0.56v-10c0-0.26,0.07-0.45,0.2-0.56
		c0.13-0.12,0.3-0.17,0.49-0.17h5.73c0.05,0,0.1,0.01,0.14,0.04c0.04,0.03,0.08,0.08,0.11,0.15c0.03,0.07,0.05,0.17,0.07,0.28
		c0.01,0.12,0.02,0.26,0.02,0.44c0,0.17-0.01,0.3-0.02,0.42c-0.01,0.12-0.04,0.21-0.07,0.28c-0.03,0.07-0.07,0.12-0.11,0.16
		c-0.04,0.03-0.09,0.05-0.14,0.05h-4.1v2.8h3.47c0.05,0,0.1,0.02,0.15,0.05c0.04,0.03,0.08,0.08,0.11,0.15
		c0.03,0.07,0.05,0.16,0.07,0.28c0.01,0.12,0.02,0.26,0.02,0.42c0,0.17-0.01,0.31-0.02,0.43c-0.02,0.11-0.04,0.2-0.07,0.27
		c-0.03,0.07-0.07,0.12-0.11,0.15c-0.04,0.03-0.09,0.04-0.15,0.04h-3.47v3.24H623c0.05,0,0.1,0.02,0.15,0.05
		c0.04,0.03,0.08,0.08,0.11,0.15c0.03,0.07,0.05,0.16,0.07,0.28C623.34,184.29,623.34,184.44,623.34,184.61z"/>
	<path class="st1" d="M640.73,184.71c0,0.14-0.02,0.26-0.07,0.36c-0.05,0.11-0.11,0.2-0.19,0.27c-0.08,0.07-0.17,0.12-0.28,0.16
		c-0.11,0.03-0.22,0.05-0.33,0.05h-0.99c-0.21,0-0.39-0.02-0.54-0.06c-0.15-0.04-0.29-0.12-0.42-0.23
		c-0.13-0.11-0.25-0.26-0.37-0.44c-0.12-0.19-0.25-0.43-0.4-0.72l-2.85-5.36c-0.17-0.32-0.33-0.66-0.5-1.03
		c-0.17-0.37-0.33-0.73-0.46-1.08h-0.02c0.02,0.43,0.04,0.85,0.05,1.27c0.01,0.42,0.02,0.86,0.02,1.31v6c0,0.06-0.02,0.11-0.05,0.16
		c-0.03,0.05-0.09,0.09-0.17,0.12c-0.08,0.03-0.19,0.06-0.32,0.07c-0.14,0.02-0.31,0.03-0.52,0.03c-0.21,0-0.38-0.01-0.51-0.03
		c-0.14-0.02-0.24-0.04-0.32-0.07c-0.08-0.03-0.13-0.07-0.16-0.12c-0.03-0.05-0.04-0.1-0.04-0.16v-10.31c0-0.28,0.08-0.48,0.24-0.63
		c0.16-0.14,0.36-0.21,0.6-0.21h1.25c0.22,0,0.41,0.02,0.57,0.06c0.15,0.04,0.29,0.1,0.41,0.19c0.12,0.09,0.24,0.21,0.34,0.37
		c0.11,0.16,0.21,0.35,0.33,0.58l2.23,4.19c0.13,0.25,0.26,0.5,0.39,0.75c0.13,0.24,0.25,0.49,0.37,0.73
		c0.12,0.25,0.23,0.49,0.35,0.72c0.11,0.24,0.22,0.47,0.33,0.71h0.01c-0.02-0.41-0.03-0.84-0.04-1.29
		c-0.01-0.45-0.01-0.88-0.01-1.29v-5.38c0-0.06,0.02-0.11,0.05-0.16c0.04-0.05,0.09-0.09,0.18-0.12c0.08-0.04,0.19-0.06,0.33-0.08
		c0.14-0.02,0.31-0.02,0.52-0.02c0.2,0,0.37,0.01,0.51,0.02c0.14,0.02,0.24,0.04,0.31,0.08c0.07,0.04,0.13,0.08,0.16,0.12
		c0.03,0.05,0.04,0.1,0.04,0.16V184.71z"/>
	<path class="st1" d="M656.85,175.01c0,0.17-0.01,0.32-0.02,0.44c-0.02,0.12-0.04,0.22-0.07,0.29c-0.03,0.07-0.07,0.13-0.11,0.16
		c-0.04,0.04-0.09,0.05-0.15,0.05h-2.87v9.24c0,0.06-0.02,0.11-0.06,0.16c-0.04,0.05-0.1,0.09-0.19,0.12
		c-0.09,0.03-0.21,0.05-0.36,0.07c-0.15,0.02-0.34,0.03-0.56,0.03s-0.41-0.01-0.56-0.03c-0.15-0.02-0.27-0.04-0.36-0.07
		c-0.09-0.03-0.15-0.07-0.19-0.12c-0.04-0.05-0.06-0.1-0.06-0.16v-9.24h-2.87c-0.06,0-0.11-0.02-0.15-0.05
		c-0.04-0.04-0.08-0.09-0.11-0.16c-0.03-0.07-0.05-0.17-0.07-0.29c-0.02-0.12-0.02-0.27-0.02-0.44c0-0.18,0.01-0.33,0.02-0.45
		c0.01-0.13,0.04-0.22,0.07-0.3c0.03-0.07,0.06-0.13,0.11-0.16c0.04-0.03,0.09-0.05,0.15-0.05h8.08c0.05,0,0.1,0.02,0.15,0.05
		c0.04,0.03,0.08,0.09,0.11,0.16c0.03,0.07,0.05,0.17,0.07,0.3C656.84,174.68,656.85,174.83,656.85,175.01z"/>
	<path class="st1" d="M681.93,175.01c0,0.17-0.01,0.32-0.02,0.44c-0.02,0.12-0.04,0.22-0.07,0.29c-0.03,0.07-0.07,0.13-0.11,0.16
		c-0.04,0.04-0.09,0.05-0.15,0.05h-2.87v9.24c0,0.06-0.02,0.11-0.06,0.16c-0.04,0.05-0.1,0.09-0.19,0.12
		c-0.09,0.03-0.21,0.05-0.36,0.07c-0.15,0.02-0.34,0.03-0.56,0.03s-0.41-0.01-0.56-0.03c-0.15-0.02-0.27-0.04-0.36-0.07
		c-0.09-0.03-0.15-0.07-0.19-0.12c-0.04-0.05-0.06-0.1-0.06-0.16v-9.24h-2.87c-0.06,0-0.11-0.02-0.15-0.05
		c-0.04-0.04-0.08-0.09-0.11-0.16c-0.03-0.07-0.05-0.17-0.07-0.29c-0.02-0.12-0.02-0.27-0.02-0.44c0-0.18,0.01-0.33,0.02-0.45
		c0.01-0.13,0.04-0.22,0.07-0.3c0.03-0.07,0.06-0.13,0.11-0.16c0.04-0.03,0.09-0.05,0.15-0.05h8.08c0.05,0,0.1,0.02,0.15,0.05
		c0.04,0.03,0.08,0.09,0.11,0.16c0.03,0.07,0.05,0.17,0.07,0.3C681.92,174.68,681.93,174.83,681.93,175.01z"/>
	<path class="st1" d="M699.35,179.65c0,0.95-0.12,1.8-0.35,2.55c-0.24,0.75-0.59,1.39-1.06,1.91c-0.47,0.52-1.04,0.92-1.73,1.2
		c-0.69,0.28-1.49,0.41-2.39,0.41c-0.89,0-1.67-0.12-2.34-0.35c-0.67-0.23-1.22-0.59-1.66-1.07c-0.44-0.48-0.78-1.09-1-1.83
		c-0.22-0.74-0.33-1.61-0.33-2.62c0-0.93,0.12-1.76,0.35-2.51c0.24-0.74,0.59-1.37,1.05-1.89c0.47-0.52,1.04-0.92,1.73-1.2
		c0.69-0.28,1.49-0.42,2.4-0.42c0.87,0,1.64,0.12,2.3,0.35c0.66,0.23,1.22,0.59,1.67,1.06c0.45,0.48,0.78,1.08,1.01,1.81
		C699.23,177.8,699.35,178.66,699.35,179.65z M696.9,179.78c0-0.6-0.05-1.15-0.14-1.64c-0.09-0.49-0.26-0.92-0.48-1.27
		c-0.23-0.35-0.53-0.62-0.91-0.82c-0.38-0.19-0.85-0.29-1.42-0.29c-0.57,0-1.05,0.11-1.44,0.32c-0.38,0.22-0.69,0.5-0.93,0.87
		c-0.24,0.36-0.4,0.78-0.5,1.26c-0.1,0.48-0.15,0.99-0.15,1.53c0,0.63,0.05,1.19,0.14,1.69c0.09,0.5,0.25,0.93,0.48,1.28
		s0.53,0.63,0.9,0.81c0.38,0.19,0.85,0.28,1.43,0.28c0.57,0,1.05-0.11,1.44-0.32c0.38-0.21,0.69-0.5,0.93-0.87
		c0.24-0.37,0.4-0.79,0.5-1.28C696.85,180.85,696.9,180.33,696.9,179.78z"/>
	<path class="st1" d="M717.58,179.65c0,0.95-0.12,1.8-0.35,2.55c-0.24,0.75-0.59,1.39-1.06,1.91c-0.47,0.52-1.04,0.92-1.73,1.2
		c-0.69,0.28-1.49,0.41-2.39,0.41c-0.89,0-1.67-0.12-2.34-0.35c-0.67-0.23-1.22-0.59-1.66-1.07c-0.44-0.48-0.78-1.09-1-1.83
		c-0.22-0.74-0.33-1.61-0.33-2.62c0-0.93,0.12-1.76,0.35-2.51c0.24-0.74,0.59-1.37,1.05-1.89c0.47-0.52,1.04-0.92,1.73-1.2
		c0.69-0.28,1.49-0.42,2.4-0.42c0.87,0,1.64,0.12,2.3,0.35c0.66,0.23,1.22,0.59,1.67,1.06c0.45,0.48,0.78,1.08,1.01,1.81
		C717.47,177.8,717.58,178.66,717.58,179.65z M715.13,179.78c0-0.6-0.05-1.15-0.14-1.64c-0.09-0.49-0.26-0.92-0.48-1.27
		c-0.23-0.35-0.53-0.62-0.91-0.82c-0.38-0.19-0.85-0.29-1.42-0.29c-0.57,0-1.05,0.11-1.44,0.32c-0.38,0.22-0.69,0.5-0.93,0.87
		c-0.24,0.36-0.4,0.78-0.5,1.26c-0.1,0.48-0.15,0.99-0.15,1.53c0,0.63,0.05,1.19,0.14,1.69c0.09,0.5,0.25,0.93,0.48,1.28
		s0.53,0.63,0.9,0.81c0.38,0.19,0.85,0.28,1.43,0.28c0.57,0,1.05-0.11,1.44-0.32c0.38-0.21,0.69-0.5,0.93-0.87
		c0.24-0.37,0.4-0.79,0.5-1.28C715.09,180.85,715.13,180.33,715.13,179.78z"/>
	<path class="st1" d="M731.8,184.55c0,0.18-0.01,0.33-0.02,0.45c-0.01,0.12-0.04,0.22-0.07,0.3c-0.03,0.08-0.07,0.14-0.11,0.17
		c-0.04,0.04-0.1,0.05-0.16,0.05h-5.26c-0.2,0-0.36-0.06-0.49-0.17c-0.13-0.12-0.2-0.3-0.2-0.56v-10.42c0-0.06,0.02-0.11,0.06-0.16
		c0.04-0.05,0.1-0.09,0.19-0.12c0.09-0.03,0.21-0.05,0.36-0.07c0.15-0.02,0.34-0.03,0.56-0.03c0.23,0,0.42,0.01,0.57,0.03
		c0.15,0.02,0.27,0.04,0.35,0.07c0.09,0.03,0.15,0.07,0.19,0.12c0.04,0.05,0.06,0.1,0.06,0.16v9.23h3.61c0.06,0,0.11,0.02,0.16,0.05
		c0.04,0.03,0.08,0.09,0.11,0.16c0.03,0.07,0.05,0.17,0.07,0.29C731.79,184.22,731.8,184.37,731.8,184.55z"/>
	<path class="st0" d="M261.28,170.02c0,6.26-5.08,11.34-11.34,11.34c-6.26,0-11.34-5.08-11.34-11.34c0-6.26,5.08-11.34,11.34-11.34
		C256.2,158.68,261.28,163.76,261.28,170.02z"/>
	<path class="st0" d="M228.78,170.02c0,6.26-5.08,11.34-11.34,11.34c-6.26,0-11.34-5.08-11.34-11.34c0-6.26,5.08-11.34,11.34-11.34
		C223.7,158.68,228.78,163.76,228.78,170.02z"/>
	<path class="st0" d="M321.44,52.27h-26.9c-3.67,0-6.92,2.35-8.07,5.83l-17.14,51.85h-72.34l-2.76-10.43h67.21
		c4.69,0,8.5-3.81,8.5-8.5c0-4.69-3.81-8.5-8.5-8.5h-78.25c-2.64,0-5.13,1.22-6.73,3.31c-1.61,2.09-2.16,4.81-1.48,7.36l7.25,27.43
		c0.99,3.73,4.36,6.33,8.22,6.33h73.27l-3.66,11.07h-58.61c-4.69,0-8.5,3.8-8.5,8.5c0,4.69,3.81,8.5,8.5,8.5h64.75
		c3.67,0,6.92-2.35,8.07-5.83l26.42-79.92h20.76c4.69,0,8.5-3.81,8.5-8.5C329.94,56.08,326.14,52.27,321.44,52.27z"/>
</g>
</svg>
